<svg height="512" viewBox="0 0 60 60" width="512" xmlns="http://www.w3.org/2000/svg"><g id="Page-1" fill="none" fill-rule="evenodd"><g id="009---Online-Login-Password" fill="rgb(0,0,0)" fill-rule="nonzero"><path id="Shape" d="m56 0h-52c-2.209139 0-4 1.790861-4 4v52c0 2.209139 1.790861 4 4 4h52c2.209139 0 4-1.790861 4-4v-52c0-2.209139-1.790861-4-4-4zm-52 2h52c1.1045695 0 2 .8954305 2 2v8h-56v-8c0-1.1045695.8954305-2 2-2zm52 56h-52c-1.1045695 0-2-.8954305-2-2v-42h56v42c0 1.1045695-.8954305 2-2 2z"/><path id="Shape" d="m7 10c1.65685425 0 3-1.34314575 3-3s-1.34314575-3-3-3-3 1.34314575-3 3 1.34314575 3 3 3zm0-4c.55228475 0 1 .44771525 1 1s-.44771525 1-1 1-1-.44771525-1-1 .44771525-1 1-1z"/><path id="Shape" d="m15 10c1.6568542 0 3-1.34314575 3-3s-1.3431458-3-3-3-3 1.34314575-3 3 1.3431458 3 3 3zm0-4c.5522847 0 1 .44771525 1 1s-.4477153 1-1 1-1-.44771525-1-1 .4477153-1 1-1z"/><path id="Shape" d="m23 10c1.6568542 0 3-1.34314575 3-3s-1.3431458-3-3-3-3 1.34314575-3 3 1.3431458 3 3 3zm0-4c.5522847 0 1 .44771525 1 1s-.4477153 1-1 1-1-.44771525-1-1 .4477153-1 1-1z"/><path id="Shape" d="m46 8h7c.5522847 0 1-.44771525 1-1s-.4477153-1-1-1h-7c-.5522847 0-1 .44771525-1 1s.4477153 1 1 1z"/><path id="Shape" d="m49 40h-38c-2.209139 0-4 1.790861-4 4v8c0 2.209139 1.790861 4 4 4h38c2.209139 0 4-1.790861 4-4v-8c0-2.209139-1.790861-4-4-4zm2 12c0 1.1045695-.8954305 2-2 2h-38c-1.1045695 0-2-.8954305-2-2v-8c0-1.1045695.8954305-2 2-2h38c1.1045695 0 2 .8954305 2 2z"/><path id="Shape" d="m18.832 45.445c-.1471733-.2206869-.3759984-.3738581-.6361213-.4258077-.2601229-.0519495-.5302285.0015795-.7508787.1488077l-1.445.964v-1.132c0-.5522847-.4477153-1-1-1s-1 .4477153-1 1v1.132l-1.445-.964c-.4595009-.306518-1.0804819-.1825009-1.387.277-.306518.4595009-.1825009 1.080482.277 1.387l1.755 1.168-1.752 1.168c-.297245.1982824-.4661282.5400812-.4430331.8966441s.2346599.6737195.555.832c.32034.1582805.7007881.1336383.9980331-.0646441l1.442-.964v1.132c0 .5522847.4477153 1 1 1s1-.4477153 1-1v-1.132l1.445.964c.297245.1982824.6776931.2229246.9980331.0646441.3203401-.1582805.5319049-.4754371.555-.832s-.1457881-.6983617-.4430331-.8966441l-1.755-1.168 1.752-1.168c.2211743-.1467018.3749585-.3753094.4274774-.6354656s-.0005358-.5305193-.1474774-.7515344z"/><path id="Shape" d="m28.832 45.445c-.1471733-.2206869-.3759984-.3738581-.6361213-.4258077-.2601229-.0519495-.5302285.0015795-.7508787.1488077l-1.445.964v-1.132c0-.5522847-.4477153-1-1-1s-1 .4477153-1 1v1.132l-1.445-.964c-.4595009-.306518-1.0804819-.1825009-1.387.277-.306518.4595009-.1825009 1.080482.277 1.387l1.755 1.168-1.752 1.168c-.297245.1982824-.4661282.5400812-.4430331.8966441s.2346599.6737195.555.832c.32034.1582805.7007881.1336383.9980331-.0646441l1.442-.964v1.132c0 .5522847.4477153 1 1 1s1-.4477153 1-1v-1.132l1.445.964c.297245.1982824.6776931.2229246.9980331.0646441.3203401-.1582805.5319049-.4754371.555-.832s-.1457881-.6983617-.4430331-.8966441l-1.755-1.168 1.752-1.168c.2211743-.1467018.3749585-.3753094.4274774-.6354656s-.0005358-.5305193-.1474774-.7515344z"/><path id="Shape" d="m38.832 45.445c-.1471733-.2206869-.3759984-.3738581-.6361213-.4258077-.2601229-.0519495-.5302285.0015795-.7508787.1488077l-1.445.964v-1.132c0-.5522847-.4477153-1-1-1s-1 .4477153-1 1v1.132l-1.445-.964c-.4595009-.306518-1.0804819-.1825009-1.387.277-.306518.4595009-.1825009 1.080482.277 1.387l1.755 1.168-1.752 1.168c-.297245.1982824-.4661282.5400812-.4430331.8966441s.2346599.6737195.555.832c.32034.1582805.7007881.1336383.9980331-.0646441l1.442-.964v1.132c0 .5522847.4477153 1 1 1s1-.4477153 1-1v-1.132l1.445.964c.297245.1982824.6776931.2229246.9980331.0646441.3203401-.1582805.5319049-.4754371.555-.832s-.1457881-.6983617-.4430331-.8966441l-1.755-1.168 1.752-1.168c.2211743-.1467018.3749585-.3753094.4274774-.6354656s-.0005358-.5305193-.1474774-.7515344z"/><path id="Shape" d="m48 50h-6c-.5522847 0-1 .4477153-1 1s.4477153 1 1 1h6c.5522847 0 1-.4477153 1-1s-.4477153-1-1-1z"/><path id="Shape" d="m23.285 35.693c.024.024.055.039.082.061 3.9373849 3.0108376 9.4085832 2.9927727 13.326-.044l.016-.012c3.7317162-2.8718699 5.2215717-7.800493 3.7056255-12.2586596s-5.7014248-7.4569603-10.4102824-7.4587142c-4.7088575-.0017539-8.8965689 2.993921-10.4158357 7.4509571s-.0330832 9.3867677 3.6964926 12.2614167zm1.753-1.193c.1790046-1.7341271 1.2483222-3.2498148 2.822-4 1.3487994.6666051 2.9312006.6666051 4.28 0 1.5732904.7504505 2.6421944 2.266089 2.821 4-3.0059465 1.9979887-6.9170535 1.9979887-9.923 0zm4.962-5.5c-1.6568542 0-3-1.3431458-3-3s1.3431458-3 3-3 3 1.3431458 3 3-1.3431458 3-3 3zm0-11c3.5506881-.007207 6.7725939 2.0772808 8.2213256 5.3189801 1.4487317 3.2416994.8525301 7.0325186-1.5213256 9.6730199-.4794413-1.5688814-1.4921732-2.9208414-2.863-3.822.7471479-.8877419 1.1587682-2.0096993 1.163-3.17 0-2.7614237-2.2385763-5-5-5s-5 2.2385763-5 5c.005072 1.1606755.4177698 2.2826755 1.166 3.17-1.3719513.9006436-2.3857913 2.2526661-2.866 3.822-2.3738557-2.6405013-2.9700573-6.4313205-1.5213256-9.6730199 1.4487317-3.2416993 4.6706375-5.3261871 8.2213256-5.3189801z"/></g></g></svg>