<svg id="footer-before" xmlns="http://www.w3.org/2000/svg" width="1000" height="99.998" viewBox="0 0 1000 99.998">
  <path id="Path_7153" data-name="Path 7153" d="M473,32.7c-203.9-88.3-263.1,34-320.3,0C66-19.1,0,40.3,0,40.3V100H1000V40.3S937.9,14.2,905.1,11c-32.8-3.3-62.8,12.3-75.8,22.1-23.3,17.3-84,58.2-134.4,62.2S492.4,41,473,32.7Z" transform="translate(0 0)" opacity="0.33"/>
  <path id="Path_7154" data-name="Path 7154" d="M734,17.224c-45.5,0-77.2,23.2-129.1,39.1-28.6,8.7-150.3,10.1-254-39.1s-91.7,34.4-149.2,0c-86-51-201.7,27.5-201.7,27.5v39.8H1000v-36.5s-28.2,18.5-92.1,18.5C810.2,66.424,775.7,17.224,734,17.224Z" transform="translate(0 15.474)" opacity="0.66"/>
  <path id="Path_7155" data-name="Path 7155" d="M766.1,30.037c-200,57.5-266-65.5-395.1-19.5-129,46.6-129,43-186.2,27.8-56.8-15.2-52.5-24.3-94.9-31.9C28.6-4.763,0,58.937,0,58.937H1000s-9.9-40.9-83.6-48.1S829.6,11.937,766.1,30.037Z" transform="translate(0 41.061)"/>
</svg>
