<svg id="Layer_1" height="512" viewBox="0 0 72 72" width="512" xmlns="http://www.w3.org/2000/svg" data-name="Layer 1"><g fill="rgb(0,0,0)"><path d="m36 58.819a1 1 0 0 1 -.683-.27l-5.911-5.525a4.488 4.488 0 0 1 -.006-6.514 4.828 4.828 0 0 1 6.6-.035 4.828 4.828 0 0 1 6.6.035 4.488 4.488 0 0 1 0 6.5l-5.922 5.535a1 1 0 0 1 -.678.274zm-3.284-11.639a2.783 2.783 0 0 0 -1.934.77 2.49 2.49 0 0 0 0 3.624l5.218 4.876 5.229-4.887a2.49 2.49 0 0 0 -.011-3.613 2.812 2.812 0 0 0 -3.867 0l-.657.633a1 1 0 0 1 -1.388 0l-.657-.633a2.781 2.781 0 0 0 -1.933-.77z"/><path d="m56 66h-40a5.006 5.006 0 0 1 -5-5v-25a1 1 0 0 1 2 0v25a3 3 0 0 0 3 3h40a3 3 0 0 0 3-3v-25a1 1 0 0 1 2 0v25a5.006 5.006 0 0 1 -5 5z"/><path d="m63 37h-20a1 1 0 0 1 0-2h20a1 1 0 0 0 1-1v-9a1 1 0 0 0 -1-1h-54a1 1 0 0 0 -1 1v9a1 1 0 0 0 1 1h20a1 1 0 0 1 0 2h-20a3 3 0 0 1 -3-3v-9a3 3 0 0 1 3-3h54a3 3 0 0 1 3 3v9a3 3 0 0 1 -3 3z"/><path d="m43 42a1 1 0 0 1 -.5-.132l-6.5-3.716-6.5 3.716a1 1 0 0 1 -1.5-.868v-18a1 1 0 0 1 1-1h14a1 1 0 0 1 1 1v18a1 1 0 0 1 -1 1zm-7-6a1 1 0 0 1 .5.132l5.5 3.145v-15.277h-12v15.277l5.5-3.145a1 1 0 0 1 .5-.132z"/><path d="m41 24h-10a1 1 0 0 1 -1-1v-3a6 6 0 0 1 12 0v3a1 1 0 0 1 -1 1zm-9-2h8v-2a4 4 0 0 0 -8 0z"/><path d="m47.31 24.05a10.6 10.6 0 0 1 -4.5-.993l-2.231-1.041a1 1 0 1 1 .846-1.812l2.23 1.04a8.76 8.76 0 0 0 6.625.287 7.017 7.017 0 0 0 4.6-6.581 6.935 6.935 0 0 0 -.419-2.4 7.016 7.016 0 0 0 -8.98-4.184 8.788 8.788 0 0 0 -4.881 4.489l-1.449 3.1a1 1 0 0 1 -1.812-.848l1.45-3.1a10.664 10.664 0 0 1 6.011-5.516 9.02 9.02 0 0 1 11.54 5.377 8.929 8.929 0 0 1 .54 3.082 9.022 9.022 0 0 1 -5.919 8.46 10.645 10.645 0 0 1 -3.651.64z"/><path d="m24.69 24.05a10.655 10.655 0 0 1 -3.652-.64 9.023 9.023 0 0 1 -5.918-8.46 8.926 8.926 0 0 1 .541-3.084 9.017 9.017 0 0 1 11.539-5.376 10.662 10.662 0 0 1 6.014 5.515l1.451 3.1a1 1 0 1 1 -1.812.848l-1.45-3.1a8.786 8.786 0 0 0 -4.888-4.485 7.013 7.013 0 0 0 -8.976 4.183 6.931 6.931 0 0 0 -.42 2.4 7.015 7.015 0 0 0 4.6 6.58 8.756 8.756 0 0 0 6.627-.287l2.231-1.044a1 1 0 0 1 .846 1.812l-2.23 1.04a10.593 10.593 0 0 1 -4.503.998z"/><path d="m43.121 17.185a1 1 0 0 1 -.342-1.94l3.759-1.369a1 1 0 0 1 .683 1.879l-3.759 1.369a.994.994 0 0 1 -.341.061z"/><path d="m28.879 17.185a.994.994 0 0 1 -.341-.061l-3.759-1.369a1 1 0 0 1 .683-1.879l3.759 1.369a1 1 0 0 1 -.342 1.94z"/></g></svg>