<svg id="Layer_5" enable-background="new 0 0 62 62" height="512" viewBox="0 0 62 62" width="512" xmlns="http://www.w3.org/2000/svg"><g><path d="m32 14h2c.552 0 1 .448 1 1h2c0-1.654-1.346-3-3-3v-2h-2v2c-1.654 0-3 1.346-3 3s1.346 3 3 3h2c.552 0 1 .448 1 1s-.448 1-1 1h-2c-.552 0-1-.448-1-1h-2c0 1.654 1.346 3 3 3v2h2v-2c1.654 0 3-1.346 3-3s-1.346-3-3-3h-2c-.552 0-1-.448-1-1s.448-1 1-1z"/><path d="m57 20h-9.313c.204-.991.313-1.995.313-3 0-8.271-6.729-15-15-15s-15 6.729-15 15 6.729 15 15 15c1.714 0 3.389-.298 5-.875v25.875c0 2.757 2.243 5 5 5h14c2.757 0 5-2.243 5-5v-32c0-2.757-2.243-5-5-5zm3 5v3h-20v-3c0-1.654 1.346-3 3-3h14c1.654 0 3 1.346 3 3zm-18.647-4.699c-1.77.623-3.071 2.202-3.295 4.123-1.502 1.028-3.24 1.576-5.058 1.576-4.963 0-9-4.037-9-9s4.037-9 9-9 9 4.037 9 9c0 1.134-.225 2.241-.647 3.301zm18.647 9.699v22h-20v-22zm-27 0c-7.168 0-13-5.832-13-13s5.832-13 13-13 13 5.832 13 13c0 1.005-.125 2.011-.36 3h-2.075c.279-.976.435-1.978.435-3 0-6.065-4.935-11-11-11s-11 4.935-11 11 4.935 11 11 11c1.759 0 3.458-.418 5-1.213v2.179c-1.601.674-3.277 1.034-5 1.034zm24 30h-14c-1.654 0-3-1.346-3-3v-3h20v3c0 1.654-1.346 3-3 3z"/><path d="m53 56h-6c-.553 0-1 .447-1 1s.447 1 1 1h6c.553 0 1-.447 1-1s-.447-1-1-1z"/><circle cx="43" cy="25" r="1"/><circle cx="47" cy="25" r="1"/><path d="m46 48.414 12.707-12.707-1.414-1.414-11.293 11.293-2.293-2.293-1.414 1.414z"/><path d="m13 16h-10c-1.654 0-3 1.346-3 3s1.346 3 3 3h8c.552 0 1 .448 1 1s-.448 1-1 1h-4c-1.654 0-3 1.346-3 3s1.346 3 3 3h11v-2h-11c-.552 0-1-.448-1-1s.448-1 1-1h4c1.654 0 3-1.346 3-3s-1.346-3-3-3h-8c-.552 0-1-.448-1-1s.448-1 1-1h10c1.654 0 3-1.346 3-3s-1.346-3-3-3h-6c-.552 0-1-.448-1-1s.448-1 1-1h6c1.654 0 3-1.346 3-3s-1.346-3-3-3h-10c-.552 0-1-.448-1-1s.448-1 1-1h18v-2h-18c-1.654 0-3 1.346-3 3s1.346 3 3 3h10c.552 0 1 .448 1 1s-.448 1-1 1h-6c-1.654 0-3 1.346-3 3s1.346 3 3 3h6c.552 0 1 .448 1 1s-.448 1-1 1z"/><path d="m34.553 50.658-10.553-5.276v3.618h-15v2h17v-2.382l7.657 3.829c.212.106.343.318.343.553s-.131.447-.342.553l-7.658 3.829v-2.382h-19v2h17v3.618l10.554-5.276c.891-.447 1.446-1.345 1.446-2.342s-.555-1.895-1.447-2.342z"/><path d="m2 41v2h14v3.618l10.554-5.276c.891-.447 1.446-1.345 1.446-2.342s-.555-1.895-1.447-2.342l-10.553-5.276v3.618h-16v2h18v-2.382l7.657 3.829c.212.106.343.318.343.553s-.131.447-.342.553l-7.658 3.829v-2.382z"/></g></svg>