<svg id="Layer_1" enable-background="new 0 0 48 48" viewBox="0 0 48 48" xmlns="http://www.w3.org/2000/svg"><path d="m3.43 47.5h41.15c1.61 0 2.93-1.31 2.93-2.93v-25.3c0-.22-.1-.44-.27-.58l-21.38-17.53c-1.08-.88-2.64-.88-3.71 0l-21.38 17.53c-.17.15-.27.36-.27.58v25.3c0 1.62 1.31 2.93 2.93 2.93zm-1.43-2.93v-23.71l13.23 10.85-13.19 13.19c-.02-.11-.04-.22-.04-.33zm1.43 1.43c-.11 0-.22-.02-.33-.04l13.29-13.29 5.75 4.72c.54.44 1.2.66 1.86.66s1.32-.22 1.86-.66l5.75-4.72 13.29 13.29c-.1.02-.21.04-.33.04zm42.53-1.1-13.19-13.19 13.23-10.85v23.71c0 .11-.02.22-.04.33zm-22.87-42.58c.53-.43 1.29-.43 1.81 0l20.66 16.95-20.65 16.96c-.52.43-1.29.43-1.81 0l-20.67-16.96z"/><path d="m18.67 17.88 4.58-4.58v14.69h1.5v-14.69l4.58 4.58 1.06-1.06-5.86-5.86c-.29-.29-.77-.29-1.06 0l-5.86 5.86z"/></svg>